<svg width="500" height="500" viewBox="0 0 500 500" fill="none" xmlns="http://www.w3.org/2000/svg">
<rect width="500" height="500" rx="200" fill="#0A4D4C"/>
<path d="M102.089 166.451C102.089 172.051 102.089 177.651 102.089 183.251C102.089 196.551 102.089 209.951 102.089 223.251C102.089 239.351 102.089 255.451 102.089 271.551C102.089 285.451 102.089 299.351 102.089 313.351C102.089 320.051 101.889 326.851 102.089 333.651C102.089 333.751 102.089 333.851 102.089 333.951C102.089 337.151 107.089 337.151 107.089 333.951C107.089 328.351 107.089 322.751 107.089 317.151C107.089 303.851 107.089 290.451 107.089 277.151C107.089 261.051 107.089 244.951 107.089 228.851C107.089 214.951 107.089 201.051 107.089 187.051C107.089 180.351 107.289 173.551 107.089 166.751C107.089 166.651 107.089 166.551 107.089 166.451C107.089 163.251 102.089 163.251 102.089 166.451Z" fill="white"/>
<path d="M130.789 150.651C130.789 152.451 130.789 154.251 130.789 155.951C130.789 160.751 130.789 165.551 130.789 170.451C130.789 177.651 130.789 184.751 130.789 191.951C130.789 200.651 130.789 209.351 130.789 218.051C130.789 227.651 130.789 237.151 130.789 246.751C130.789 256.351 130.789 265.951 130.789 275.551C130.789 284.551 130.789 293.451 130.789 302.451C130.789 310.051 130.789 317.651 130.789 325.251C130.789 330.751 130.789 336.151 130.789 341.651C130.789 344.251 130.689 346.851 130.789 349.351C130.789 349.451 130.789 349.551 130.789 349.651C130.789 352.851 135.789 352.851 135.789 349.651C135.789 347.851 135.789 346.051 135.789 344.351C135.789 339.551 135.789 334.751 135.789 329.851C135.789 322.651 135.789 315.551 135.789 308.351C135.789 299.651 135.789 290.951 135.789 282.251C135.789 272.651 135.789 263.151 135.789 253.551C135.789 243.951 135.789 234.351 135.789 224.751C135.789 215.751 135.789 206.851 135.789 197.851C135.789 190.251 135.789 182.651 135.789 175.051C135.789 169.551 135.789 164.151 135.789 158.651C135.789 156.051 135.889 153.451 135.789 150.951C135.789 150.851 135.789 150.751 135.789 150.651C135.789 147.351 130.789 147.351 130.789 150.651Z" fill="white"/>
<path d="M159.489 132.851C159.489 134.951 159.489 137.051 159.489 139.151C159.489 144.851 159.489 150.451 159.489 156.151C159.489 164.551 159.489 172.951 159.489 181.351C159.489 191.551 159.489 201.751 159.489 211.951C159.489 223.151 159.489 234.351 159.489 245.551C159.489 256.851 159.489 268.051 159.489 279.351C159.489 289.851 159.489 300.451 159.489 310.951C159.489 319.851 159.489 328.751 159.489 337.651C159.489 344.051 159.489 350.451 159.489 356.851C159.489 359.851 159.389 362.951 159.489 365.951C159.489 366.051 159.489 366.251 159.489 366.351C159.489 369.551 164.489 369.551 164.489 366.351C164.489 364.251 164.489 362.151 164.489 360.051C164.489 354.351 164.489 348.751 164.489 343.051C164.489 334.651 164.489 326.251 164.489 317.851C164.489 307.651 164.489 297.451 164.489 287.251C164.489 276.051 164.489 264.851 164.489 253.651C164.489 242.351 164.489 231.151 164.489 219.851C164.489 209.351 164.489 198.751 164.489 188.251C164.489 179.351 164.489 170.451 164.489 161.551C164.489 155.151 164.489 148.751 164.489 142.351C164.489 139.351 164.589 136.251 164.489 133.251C164.489 133.151 164.489 132.951 164.489 132.851C164.489 129.651 159.489 129.651 159.489 132.851Z" fill="white"/>
<path d="M189.689 116.251C189.689 118.651 189.689 121.051 189.689 123.451C189.689 129.951 189.689 136.351 189.689 142.851C189.689 152.451 189.689 162.051 189.689 171.651C189.689 183.351 189.689 195.051 189.689 206.751C189.689 219.551 189.689 232.251 189.689 245.051C189.689 258.051 189.689 271.051 189.689 283.951C189.689 295.951 189.689 307.951 189.689 320.051C189.689 330.251 189.689 340.451 189.689 350.651C189.689 357.951 189.689 365.351 189.689 372.651C189.689 376.151 189.589 379.551 189.689 383.051C189.689 383.251 189.689 383.351 189.689 383.551C189.689 386.751 194.689 386.751 194.689 383.551C194.689 381.151 194.689 378.751 194.689 376.351C194.689 369.851 194.689 363.451 194.689 356.951C194.689 347.351 194.689 337.751 194.689 328.151C194.689 316.451 194.689 304.751 194.689 293.051C194.689 280.251 194.689 267.551 194.689 254.751C194.689 241.751 194.689 228.751 194.689 215.851C194.689 203.851 194.689 191.851 194.689 179.751C194.689 169.551 194.689 159.351 194.689 149.151C194.689 141.851 194.689 134.451 194.689 127.151C194.689 123.651 194.789 120.251 194.689 116.751C194.689 116.551 194.689 116.451 194.689 116.251C194.689 113.051 189.689 113.051 189.689 116.251Z" fill="white"/>
<path d="M218.489 99.9508C218.489 102.651 218.489 105.351 218.489 108.051C218.489 115.351 218.489 122.651 218.489 129.851C218.489 140.651 218.489 151.451 218.489 162.251C218.489 175.451 218.489 188.551 218.489 201.751C218.489 216.151 218.489 230.551 218.489 244.851C218.489 259.451 218.489 274.051 218.489 288.651C218.489 302.151 218.489 315.751 218.489 329.251C218.489 340.751 218.489 352.251 218.489 363.651C218.489 371.951 218.489 380.151 218.489 388.451C218.489 392.351 218.389 396.251 218.489 400.151C218.489 400.351 218.489 400.451 218.489 400.651C218.489 403.851 223.489 403.851 223.489 400.651C223.489 397.951 223.489 395.251 223.489 392.551C223.489 385.251 223.489 377.951 223.489 370.751C223.489 359.951 223.489 349.151 223.489 338.351C223.489 325.151 223.489 312.051 223.489 298.851C223.489 284.451 223.489 270.051 223.489 255.751C223.489 241.151 223.489 226.551 223.489 211.951C223.489 198.451 223.489 184.851 223.489 171.351C223.489 159.851 223.489 148.351 223.489 136.951C223.489 128.651 223.489 120.451 223.489 112.151C223.489 108.251 223.589 104.351 223.489 100.451C223.489 100.251 223.489 100.151 223.489 99.9508C223.489 96.7508 218.489 96.7508 218.489 99.9508Z" fill="white"/>
<path d="M247.889 82.9508C247.889 85.9508 247.889 88.9508 247.889 91.9508C247.889 100.051 247.889 108.151 247.889 116.251C247.889 128.251 247.889 140.251 247.889 152.351C247.889 167.051 247.889 181.651 247.889 196.351C247.889 212.351 247.889 228.351 247.889 244.351C247.889 260.651 247.889 276.851 247.889 293.151C247.889 308.251 247.889 323.251 247.889 338.351C247.889 351.151 247.889 363.851 247.889 376.651C247.889 385.851 247.889 395.051 247.889 404.251C247.889 408.551 247.789 412.951 247.889 417.251C247.889 417.451 247.889 417.651 247.889 417.851C247.889 421.051 252.889 421.051 252.889 417.851C252.889 414.851 252.889 411.851 252.889 408.851C252.889 400.751 252.889 392.651 252.889 384.551C252.889 372.551 252.889 360.551 252.889 348.451C252.889 333.751 252.889 319.151 252.889 304.451C252.889 288.451 252.889 272.451 252.889 256.451C252.889 240.151 252.889 223.951 252.889 207.651C252.889 192.551 252.889 177.551 252.889 162.451C252.889 149.651 252.889 136.951 252.889 124.151C252.889 114.951 252.889 105.751 252.889 96.5508C252.889 92.2508 252.989 87.8508 252.889 83.5508C252.889 83.3508 252.889 83.1508 252.889 82.9508C252.889 79.7508 247.889 79.7508 247.889 82.9508Z" fill="white"/>
<path d="M105.788 168.651C110.588 165.851 115.488 163.051 120.288 160.151C131.888 153.351 143.488 146.651 155.188 139.851C169.288 131.651 183.288 123.451 197.388 115.251C209.488 108.151 221.688 101.051 233.788 94.0509C239.688 90.6509 245.688 87.3509 251.488 83.7509C251.588 83.7509 251.688 83.6509 251.688 83.6509C254.488 82.0509 251.988 77.7509 249.188 79.3509C244.388 82.1509 239.488 84.9509 234.688 87.8509C223.088 94.6509 211.488 101.351 199.788 108.151C185.688 116.251 171.688 124.451 157.588 132.651C145.488 139.751 133.288 146.851 121.188 153.851C115.288 157.251 109.288 160.551 103.488 164.151C103.388 164.151 103.288 164.251 103.288 164.251C100.488 165.951 102.988 170.251 105.788 168.651Z" fill="white"/>
<path d="M397.189 163.951C392.389 161.151 387.589 158.351 382.789 155.551C371.289 148.851 359.789 142.151 348.289 135.551C334.389 127.451 320.489 119.451 306.589 111.351C294.589 104.351 282.489 97.3509 270.489 90.3509C264.689 86.9509 258.989 83.4509 253.089 80.2509C252.989 80.2509 252.889 80.1509 252.889 80.1509C250.089 78.5509 247.589 82.8509 250.389 84.4509C255.189 87.2509 259.989 90.0509 264.789 92.8509C276.289 99.5509 287.789 106.251 299.289 112.851C313.189 120.951 327.089 128.951 340.989 137.051C352.989 144.051 365.089 151.051 377.089 158.051C382.889 161.451 388.589 164.951 394.489 168.151C394.589 168.151 394.689 168.251 394.689 168.251C397.389 169.851 399.889 165.551 397.189 163.951Z" fill="white"/>
<path d="M398.389 333.951C398.389 328.351 398.389 322.751 398.389 317.151C398.389 303.851 398.389 290.451 398.389 277.151C398.389 261.051 398.389 244.951 398.389 228.851C398.389 214.951 398.389 201.051 398.389 187.051C398.389 180.351 398.589 173.551 398.389 166.751C398.389 166.651 398.389 166.551 398.389 166.451C398.389 163.251 393.389 163.251 393.389 166.451C393.389 172.051 393.389 177.651 393.389 183.251C393.389 196.551 393.389 209.951 393.389 223.251C393.389 239.351 393.389 255.451 393.389 271.551C393.389 285.451 393.389 299.351 393.389 313.351C393.389 320.051 393.189 326.851 393.389 333.651C393.389 333.751 393.389 333.851 393.389 333.951C393.389 337.151 398.389 337.151 398.389 333.951Z" fill="white"/>
<path d="M251.689 419.951C256.489 417.151 261.389 414.351 266.189 411.551C277.789 404.851 289.389 398.151 300.989 391.451C314.989 383.351 329.089 375.251 343.089 367.151C355.189 360.151 367.189 353.251 379.289 346.251C385.189 342.851 391.189 339.651 396.989 336.051C397.089 336.051 397.189 335.951 397.189 335.951C399.989 334.351 397.489 330.051 394.689 331.651C389.889 334.451 384.989 337.251 380.189 340.051C368.589 346.751 356.989 353.451 345.389 360.151C331.389 368.251 317.289 376.351 303.289 384.451C291.189 391.451 279.189 398.351 267.089 405.351C261.189 408.751 255.189 411.951 249.389 415.551C249.289 415.551 249.189 415.651 249.189 415.651C246.389 417.251 248.889 421.551 251.689 419.951Z" fill="white"/>
<path d="M103.288 336.051C108.188 338.851 112.988 341.651 117.888 344.451C129.488 351.151 141.088 357.851 152.788 364.551C166.788 372.651 180.888 380.651 194.888 388.751C206.988 395.751 219.188 402.651 231.288 409.651C237.188 413.051 242.988 416.551 248.988 419.851C249.088 419.851 249.188 419.951 249.188 419.951C251.988 421.551 254.488 417.251 251.688 415.651C246.788 412.851 241.988 410.051 237.088 407.251C225.488 400.551 213.888 393.851 202.188 387.151C188.188 379.051 174.088 371.051 160.088 362.951C147.988 355.951 135.788 349.051 123.688 342.051C117.788 338.651 111.988 335.151 105.988 331.851C105.888 331.851 105.788 331.751 105.788 331.751C102.988 330.151 100.488 334.451 103.288 336.051Z" fill="white"/>
<path d="M249.189 118.651C253.989 121.451 258.889 124.251 263.689 127.051C275.189 133.751 286.789 140.351 298.289 147.051C312.289 155.151 326.289 163.251 340.389 171.351C352.489 178.351 364.489 185.251 376.589 192.251C382.489 195.651 388.289 199.251 394.289 202.451C394.389 202.451 394.489 202.551 394.489 202.551C397.289 204.151 399.789 199.851 396.989 198.251C392.189 195.451 387.289 192.651 382.489 189.851C370.989 183.151 359.389 176.551 347.889 169.851C333.889 161.751 319.889 153.651 305.789 145.551C293.689 138.551 281.689 131.651 269.589 124.651C263.689 121.251 257.889 117.651 251.889 114.451C251.789 114.451 251.689 114.351 251.689 114.351C248.889 112.651 246.389 117.051 249.189 118.651Z" fill="white"/>
<path d="M249.489 152.051C254.289 154.851 259.189 157.651 263.989 160.451C275.489 167.151 286.989 173.851 298.589 180.551C312.489 188.651 326.489 196.751 340.389 204.851C352.489 211.851 364.589 218.951 376.689 225.951C382.489 229.351 388.289 232.951 394.189 236.151C394.289 236.151 394.389 236.251 394.389 236.251C397.189 237.851 399.689 233.551 396.889 231.951C392.089 229.151 387.189 226.351 382.389 223.551C370.889 216.851 359.389 210.151 347.789 203.451C333.889 195.351 319.889 187.251 305.989 179.151C293.889 172.151 281.789 165.051 269.689 158.051C263.889 154.651 258.089 151.051 252.189 147.851C252.089 147.851 251.989 147.751 251.989 147.751C249.289 146.051 246.789 150.451 249.489 152.051Z" fill="white"/>
<path d="M249.189 186.451C253.989 189.251 258.889 192.051 263.689 194.851C275.189 201.551 286.789 208.151 298.289 214.851C312.289 222.951 326.389 231.051 340.389 239.151C352.489 246.151 364.489 253.051 376.589 260.051C382.489 263.451 388.289 267.051 394.289 270.251C394.389 270.251 394.489 270.351 394.489 270.351C397.289 271.951 399.789 267.651 396.989 266.051C392.189 263.251 387.289 260.451 382.489 257.651C370.989 250.951 359.389 244.351 347.889 237.651C333.889 229.551 319.789 221.451 305.789 213.351C293.689 206.351 281.689 199.451 269.589 192.451C263.689 189.051 257.889 185.451 251.889 182.251C251.789 182.251 251.689 182.151 251.689 182.151C248.889 180.451 246.389 184.851 249.189 186.451Z" fill="white"/>
<path d="M249.389 288.951C253.089 291.151 256.889 293.251 260.589 295.451C269.589 300.651 278.589 305.851 287.589 311.051C298.389 317.351 309.289 323.551 320.089 329.851C329.489 335.251 338.889 340.751 348.289 346.151C352.789 348.751 357.289 351.551 361.989 354.051C362.089 354.051 362.089 354.151 362.189 354.151C364.989 355.751 367.489 351.451 364.689 349.851C360.989 347.651 357.189 345.551 353.489 343.351C344.489 338.151 335.489 332.951 326.489 327.751C315.689 321.451 304.789 315.251 293.989 308.951C284.589 303.551 275.189 298.051 265.789 292.651C261.289 290.051 256.789 287.251 252.089 284.751C251.989 284.751 251.989 284.651 251.889 284.651C249.089 282.951 246.589 287.351 249.389 288.951Z" fill="white"/>
<path d="M249.189 323.251C251.989 324.851 254.689 326.451 257.489 328.051C264.189 331.851 270.889 335.751 277.589 339.551C285.689 344.151 293.689 348.751 301.789 353.351C308.789 357.351 315.789 361.351 322.789 365.351C326.189 367.251 329.489 369.351 332.989 371.151L333.089 371.251C335.889 372.851 338.389 368.551 335.589 366.951C332.789 365.351 330.089 363.751 327.289 362.151C320.589 358.351 313.889 354.451 307.189 350.651C299.089 346.051 291.089 341.451 282.989 336.851C275.989 332.851 268.989 328.851 261.989 324.851C258.589 322.951 255.289 320.851 251.789 319.051L251.689 318.951C248.889 317.351 246.389 321.651 249.189 323.251Z" fill="white"/>
<path d="M249.288 356.951C255.388 360.451 261.588 364.051 267.688 367.551C277.488 373.151 287.288 378.851 297.088 384.451C299.288 385.751 301.588 387.051 303.788 388.351C306.588 389.951 309.088 385.651 306.288 384.051C300.188 380.551 293.988 376.951 287.888 373.451C278.088 367.851 268.288 362.151 258.488 356.551C256.288 355.251 253.988 353.951 251.788 352.651C248.988 350.951 246.488 355.251 249.288 356.951Z" fill="white"/>
<path d="M394.288 274.051C391.288 275.451 388.188 276.751 385.188 278.151C377.888 281.451 370.588 284.751 363.188 288.051C354.388 292.051 345.588 295.951 336.788 299.951C329.088 303.351 321.488 306.851 313.788 310.251C311.288 311.351 308.788 312.551 306.188 313.651C304.988 314.151 303.788 314.651 302.588 315.251C302.488 315.251 302.488 315.251 302.388 315.351C301.188 315.951 300.888 317.651 301.488 318.751C302.188 320.051 303.688 320.251 304.888 319.651C307.888 318.251 310.988 316.951 313.988 315.551C321.288 312.251 328.588 308.951 335.988 305.651C344.788 301.651 353.588 297.751 362.388 293.751C370.088 290.351 377.688 286.851 385.388 283.451C387.888 282.351 390.388 281.151 392.988 280.051C394.188 279.551 395.388 279.051 396.588 278.451C396.688 278.451 396.688 278.451 396.788 278.351C397.988 277.751 398.288 276.051 397.688 274.951C396.988 273.651 395.488 273.451 394.288 274.051Z" fill="white"/>
<path d="M374.888 254.751C371.588 256.251 368.288 257.751 364.988 259.151C357.088 262.751 349.088 266.251 341.188 269.851C331.588 274.151 322.088 278.451 312.488 282.751C304.188 286.451 295.888 290.151 287.588 293.951C284.888 295.151 282.188 296.351 279.488 297.651C278.188 298.251 276.788 298.751 275.588 299.451C275.488 299.451 275.488 299.551 275.388 299.551C274.188 300.151 273.888 301.851 274.488 302.951C275.188 304.251 276.688 304.451 277.888 303.851C281.188 302.351 284.488 300.851 287.788 299.451C295.688 295.851 303.688 292.351 311.588 288.751C321.188 284.451 330.688 280.151 340.288 275.851C348.588 272.151 356.888 268.451 365.188 264.651C367.888 263.451 370.588 262.251 373.288 260.951C374.588 260.351 375.988 259.851 377.188 259.151C377.288 259.151 377.288 259.051 377.388 259.051C378.588 258.451 378.888 256.751 378.288 255.651C377.588 254.351 376.188 254.251 374.888 254.751Z" fill="white"/>
<path d="M343.689 236.651C340.589 238.051 337.489 239.451 334.389 240.851C326.889 244.251 319.389 247.651 311.889 251.051C302.889 255.151 293.789 259.251 284.789 263.351C276.889 266.951 269.089 270.451 261.189 274.051C258.589 275.251 255.989 276.351 253.489 277.551C252.289 278.151 250.989 278.551 249.789 279.251C249.689 279.251 249.689 279.251 249.589 279.351C248.389 279.951 248.089 281.651 248.689 282.751C249.389 284.051 250.889 284.251 252.089 283.651C255.189 282.251 258.289 280.851 261.389 279.451C268.889 276.051 276.389 272.651 283.889 269.251C292.889 265.151 301.989 261.051 310.989 256.951C318.889 253.351 326.689 249.851 334.589 246.251C337.189 245.051 339.789 243.951 342.289 242.751C343.489 242.151 344.789 241.751 345.989 241.051C346.089 241.051 346.089 241.051 346.189 240.951C347.389 240.351 347.689 238.651 347.089 237.551C346.289 236.351 344.889 236.151 343.689 236.651Z" fill="white"/>
<path d="M312.389 218.551C305.289 221.751 298.189 224.951 291.089 228.151C279.889 233.251 268.589 238.351 257.389 243.451C254.789 244.651 252.189 245.751 249.589 246.951C248.389 247.551 248.089 249.251 248.689 250.351C249.389 251.651 250.889 251.851 252.089 251.251C259.189 248.051 266.289 244.851 273.389 241.651C284.589 236.551 295.889 231.451 307.089 226.351C309.689 225.151 312.289 224.051 314.889 222.851C316.089 222.251 316.389 220.551 315.789 219.451C315.089 218.151 313.589 217.951 312.389 218.551Z" fill="white"/>
</svg>

